<?xml version="1.0" standalone="no"?><!-- Generator: Gravit.io --><svg xmlns="http://www.w3.org/2000/svg" xmlns:xlink="http://www.w3.org/1999/xlink" style="isolation:isolate" viewBox="0 0 512 512" width="512" height="512"><defs><clipPath id="_clipPath_BXAYmfXVw69qyMIlxHOf6pFHejJ7azyN"><rect width="512" height="512"/></clipPath></defs><g clip-path="url(#_clipPath_BXAYmfXVw69qyMIlxHOf6pFHejJ7azyN)"><circle vector-effect="non-scaling-stroke" cx="256" cy="256" r="256" fill="rgb(235,235,235)"/><g><path d=" M 450.25 392.729 L 450.25 117.396 C 450.25 115.16 448.671 113.235 446.479 112.796 L 322.116 87.923 C 321.224 87.745 320.299 87.829 319.454 88.168 L 192.544 138.934 C 191.698 139.271 190.774 139.356 189.882 139.178 L 67.36 114.673 C 64.458 114.092 61.75 116.312 61.75 119.271 L 61.75 394.604 C 61.75 396.84 63.328 398.766 65.52 399.204 L 189.883 424.077 C 190.774 424.255 191.699 424.171 192.544 423.832 L 319.456 373.067 C 320.301 372.729 321.225 372.644 322.117 372.823 L 444.641 397.328 C 447.541 397.908 450.25 395.688 450.25 392.729 Z " fill="rgb(182,227,238)"/><g><path d=" M 450.25 392.729 L 450.25 117.396 C 450.25 115.16 448.671 113.235 446.479 112.796 L 322.116 87.923 C 321.224 87.745 320.299 87.829 319.454 88.168 L 192.544 138.934 C 191.698 139.271 190.774 139.356 189.882 139.178 L 67.36 114.673 C 64.458 114.092 61.75 116.312 61.75 119.271 L 61.75 394.604 C 61.75 396.84 63.328 398.766 65.52 399.204 L 189.883 424.077 C 190.774 424.255 191.699 424.171 192.544 423.832 L 319.456 373.067 C 320.301 372.729 321.225 372.644 322.117 372.823 L 444.641 397.328 C 447.541 397.908 450.25 395.688 450.25 392.729 Z " fill="rgb(209,209,209)"/></g><g><path d=" M 446.479 112.796 L 433.188 110.138 C 434.069 110.997 434.615 112.184 434.615 113.486 L 434.615 392.728 C 434.615 393.636 434.358 394.473 433.921 395.183 L 444.64 397.327 C 447.542 397.908 450.25 395.688 450.25 392.728 L 450.25 117.396 C 450.25 115.16 448.671 113.234 446.479 112.796 Z " fill="rgb(128,128,128)"/><path d=" M 320.752 87.854 C 320.309 87.897 319.872 88.001 319.455 88.168 L 192.544 138.934 C 192.127 139.1 191.691 139.204 191.249 139.246 L 191.249 424.146 C 191.691 424.103 192.127 423.999 192.544 423.833 L 319.455 373.068 C 319.872 372.902 320.308 372.797 320.752 372.755 L 320.752 87.854 Z " fill="rgb(209,209,209)"/></g><path d=" M 147.741 340.806 L 156.545 332.001 C 158.834 329.711 158.834 325.999 156.545 323.71 C 154.255 321.422 150.543 321.422 148.254 323.71 L 139.45 332.515 L 130.645 323.71 C 128.356 321.422 124.644 321.421 122.354 323.71 C 120.065 326 120.065 329.712 122.354 332.001 L 131.158 340.806 L 122.354 349.611 C 120.065 351.901 120.065 355.613 122.354 357.903 C 123.499 359.047 125 359.619 126.5 359.619 C 128 359.619 129.501 359.047 130.646 357.903 L 139.45 349.098 L 148.254 357.903 C 149.399 359.047 150.899 359.619 152.4 359.619 C 153.9 359.619 155.401 359.047 156.546 357.903 C 158.835 355.613 158.835 351.901 156.546 349.611 L 147.741 340.806 Z " fill="rgb(255,37,81)"/><g><path d=" M 359.435 302.25 C 356.196 302.25 353.572 304.874 353.572 308.112 L 353.572 340.176 C 353.572 343.414 356.196 346.038 359.435 346.038 C 362.673 346.038 365.297 343.414 365.297 340.176 L 365.297 308.113 C 365.297 304.875 362.672 302.25 359.435 302.25 Z " fill="rgb(152,83,53)"/><path d=" M 411.23 265.085 C 407.991 265.085 405.367 267.708 405.367 270.947 L 405.367 301.324 C 405.367 304.563 407.991 307.187 411.23 307.187 C 414.468 307.187 417.092 304.563 417.092 301.324 L 417.092 270.948 C 417.093 267.71 414.468 265.085 411.23 265.085 Z " fill="rgb(152,83,53)"/></g><path d=" M 423.071 277.791 L 397.296 272.636 C 394.491 272.075 392.837 269.155 393.799 266.46 L 406.687 230.356 C 408.2 226.115 414.239 226.236 415.58 230.534 L 428.468 271.794 C 429.529 275.194 426.563 278.49 423.071 277.791 Z " fill="rgb(0,206,150)"/><g><path d=" M 326.611 88.823 L 322.115 87.923 C 321.224 87.745 320.299 87.829 319.453 88.168 L 314.885 89.996 L 314.885 374.895 L 319.453 373.067 C 320.299 372.729 321.223 372.644 322.115 372.823 L 326.611 373.722 L 326.611 88.823 Z " fill="rgb(128,128,128)"/><path d=" M 197.112 422.005 L 197.112 137.106 L 192.544 138.934 C 191.698 139.271 190.774 139.356 189.882 139.178 L 185.386 138.279 L 185.386 423.177 L 189.882 424.077 C 190.773 424.255 191.698 424.171 192.544 423.832 L 197.112 422.005 Z " fill="rgb(128,128,128)"/></g><path d=" M 191.249 357.028 C 190.865 357.028 190.48 356.991 190.1 356.914 L 138.306 346.555 C 135.131 345.919 133.072 342.831 133.706 339.657 C 134.342 336.481 137.432 334.422 140.605 335.057 L 190.689 345.075 L 276.293 310.839 C 284.011 307.785 288.985 300.468 288.985 292.189 C 288.985 281.14 279.996 272.151 268.947 272.151 C 266.372 272.151 263.868 272.631 261.505 273.577 C 261.471 273.592 261.436 273.605 261.401 273.62 L 193.424 300.811 C 192.368 301.233 191.212 301.341 190.097 301.117 L 120.324 287.162 C 105.507 284.25 94.737 271.143 94.737 256 C 94.737 238.486 108.985 224.237 126.499 224.237 C 128.64 224.237 130.782 224.451 132.868 224.876 L 190.689 236.44 L 318.572 185.287 C 319.629 184.865 320.786 184.758 321.899 184.981 L 386.65 197.931 C 389.825 198.567 391.884 201.655 391.25 204.829 C 390.615 208.004 387.527 210.065 384.352 209.429 L 321.31 196.82 L 193.427 247.974 C 192.371 248.395 191.215 248.504 190.1 248.28 L 130.55 236.37 C 129.212 236.097 127.857 235.961 126.499 235.961 C 115.451 235.961 106.462 244.949 106.462 255.999 C 106.462 265.554 113.253 273.821 122.607 275.659 L 190.691 289.276 L 256.955 262.771 C 256.973 262.763 256.991 262.755 257.01 262.748 C 260.805 261.206 264.822 260.426 268.948 260.426 C 286.461 260.426 300.71 274.675 300.71 292.189 C 300.71 305.31 292.827 316.907 280.627 321.734 L 193.425 356.608 C 192.731 356.887 191.991 357.028 191.249 357.028 Z " fill="rgb(88,86,92)"/><path d=" M 411.4 151.88 C 411.4 136.971 398.803 125.004 383.671 126.043 C 370.887 126.921 360.533 137.283 359.662 150.067 C 359.282 155.643 360.67 160.873 363.319 165.255 L 381.439 196.643 C 383.244 199.77 387.757 199.77 389.563 196.643 L 407.683 165.255 C 410.041 161.351 411.4 156.774 411.4 151.88 Z " fill="rgb(255,37,81)"/><circle vector-effect="non-scaling-stroke" cx="385.50207455192816" cy="151.87865298663473" r="9.711734893350808" fill="rgb(255,255,255)"/><path d=" M 371.274 316.642 L 345.499 311.487 C 342.693 310.925 341.04 308.005 342.001 305.312 L 354.89 269.206 C 356.403 264.966 362.442 265.087 363.783 269.385 L 376.671 310.645 C 377.733 314.045 374.767 317.341 371.274 316.642 Z " fill="rgb(0,206,150)"/></g><g><rect x="230.137" y="43.378" width="4.591" height="19.434" transform="matrix(-0.707,-0.707,0.707,-0.707,359.244,254.993)" fill="rgb(88,86,92)"/><path d=" M 244.283 52.716 L 288 9 L 265.059 9 L 221.343 52.716 L 244.283 52.716 Z " fill="rgb(128,128,128)"/><g><path d=" M 183.226 28.451 C 182.33 27.554 180.876 27.554 179.98 28.451 C 179.084 29.347 179.084 30.801 179.98 31.697 L 193.1 44.817 L 196.347 41.571 L 183.226 28.451 Z " fill="rgb(88,86,92)"/><path d=" M 257.079 102.303 L 243.959 89.183 L 240.713 92.429 L 253.833 105.549 C 254.729 106.446 256.183 106.446 257.079 105.549 C 257.976 104.653 257.976 103.199 257.079 102.303 Z " fill="rgb(88,86,92)"/></g><path d=" M 246.664 67 L 218.53 38.865 L 204.462 52.933 L 214.201 71.328 L 232.597 81.067 L 246.664 67 Z " fill="rgb(88,86,92)"/><rect x="201.549" y="54.139" width="19.894" height="39.787" transform="matrix(-0.707,0.707,-0.707,-0.707,413.395,-23.169)" fill="rgb(88,86,92)"/><g><path d=" M 176.328 52.933 C 184.097 60.702 196.693 60.702 204.462 52.933 C 212.231 45.164 212.231 32.567 204.462 24.798 L 176.328 52.933 Z " fill="rgb(209,209,209)"/><path d=" M 232.597 109.201 C 224.828 101.432 224.828 88.836 232.597 81.067 C 240.366 73.298 252.962 73.298 260.731 81.067 L 232.597 109.201 Z " fill="rgb(209,209,209)"/></g><path d=" M 213.12 72.41 C 212.223 71.514 210.77 71.514 209.873 72.41 L 196.131 86.153 L 199.377 89.399 L 213.12 75.657 C 214.016 74.76 214.016 73.307 213.12 72.41 Z " fill="rgb(88,86,92)"/><path d=" M 172 125 L 215.716 81.283 L 192.776 81.283 L 149.06 125 L 172 125 Z " fill="rgb(128,128,128)"/></g><g><path d=" M 256.01 111.896 C 255.816 108.292 258.591 105.203 262.195 105.01 C 265.799 104.816 268.888 107.591 269.082 111.195 C 269.275 114.799 266.5 117.888 262.896 118.082 C 259.292 118.275 256.203 115.5 256.01 111.896 Z " fill="rgb(88,86,92)"/><path d=" M 260.388 132.418 C 260.291 130.614 261.676 129.072 263.481 128.975 C 273.091 128.46 280.491 120.221 279.975 110.611 C 279.878 108.806 281.263 107.264 283.068 107.167 C 284.873 107.07 286.414 108.455 286.511 110.26 C 286.855 116.661 284.684 122.813 280.401 127.583 C 276.117 132.352 270.233 135.168 263.831 135.511 C 262.026 135.608 260.485 134.223 260.388 132.418 Z " fill="rgb(88,86,92)"/><path d=" M 261.323 149.848 C 261.226 148.043 262.611 146.501 264.416 146.405 C 283.637 145.373 298.436 128.897 297.405 109.676 C 297.308 107.871 298.692 106.329 300.497 106.232 C 302.302 106.135 303.844 107.52 303.941 109.325 C 304.24 114.912 303.436 120.392 301.551 125.613 C 299.73 130.655 296.983 135.242 293.386 139.246 C 289.79 143.251 285.523 146.472 280.705 148.822 C 275.716 151.255 270.353 152.641 264.766 152.941 C 262.961 153.037 261.42 151.653 261.323 149.848 Z " fill="rgb(88,86,92)"/></g></g></svg>